<mxfile host="Electron" agent="Mozilla/5.0 (Macintosh; Intel Mac OS X 10_15_7) AppleWebKit/537.36 (KHTML, like Gecko) draw.io/28.2.8 Chrome/140.0.7339.240 Electron/38.4.0 Safari/537.36" version="28.2.8">
  <diagram name="Page-1" id="BucCD2h-af2P0_rPu-d7">
    <mxGraphModel dx="1216" dy="905" grid="1" gridSize="10" guides="1" tooltips="1" connect="1" arrows="1" fold="1" page="0" pageScale="1" pageWidth="850" pageHeight="1100" math="0" shadow="0">
      <root>
        <mxCell id="0" />
        <mxCell id="1" parent="0" />
        <mxCell id="74TELOO3NrFOeW4OJnCb-2" value="&lt;p dir=&quot;ltr&quot; style=&quot;box-sizing: border-box; margin: 6pt 0px; padding: 0px; color: rgb(0, 0, 0); font-family: SFProDisplay; font-size: 16px; font-style: normal; font-variant-ligatures: normal; font-variant-caps: normal; font-weight: 400; letter-spacing: normal; orphans: 2; text-align: start; text-indent: 0px; text-transform: none; widows: 2; word-spacing: 0px; -webkit-text-stroke-width: 0px; white-space: normal; background-color: rgb(255, 255, 255); text-decoration-thickness: initial; text-decoration-style: initial; text-decoration-color: initial; line-height: 1.8;&quot;&gt;&lt;span style=&quot;box-sizing: border-box; margin: 0px; padding: 0px; background-color: transparent; color: rgb(0, 0, 0); font-family: Arial, sans-serif; font-size: 12pt;&quot;&gt;&lt;span style=&quot;box-sizing: border-box; margin: 0px; padding: 0px; font-style: normal; font-variant: normal; text-decoration: none; vertical-align: baseline; white-space: pre-wrap;&quot;&gt;&lt;strong style=&quot;box-sizing: border-box; margin: 0px; padding: 0px; font-weight: bolder;&quot;&gt;Đối tượng cần phân tích:&lt;/strong&gt;&lt;/span&gt;&lt;span style=&quot;box-sizing: border-box; margin: 0px; padding: 0px; font-style: normal; font-variant: normal; font-weight: 400; text-decoration: none; vertical-align: baseline; white-space: pre-wrap;&quot;&gt;&amp;nbsp;&lt;/span&gt;&lt;span style=&quot;box-sizing: border-box; margin: 0px; padding: 0px; font-style: normal; font-variant: normal; text-decoration: none; vertical-align: baseline; white-space: pre-wrap;&quot;&gt;&lt;strong style=&quot;box-sizing: border-box; margin: 0px; padding: 0px; font-weight: bolder;&quot;&gt;Sản phẩm&lt;/strong&gt;&lt;/span&gt;&lt;/span&gt;&lt;/p&gt;&lt;p dir=&quot;ltr&quot; style=&quot;box-sizing: border-box; margin: 6pt 0px; padding: 0px; color: rgb(0, 0, 0); font-family: SFProDisplay; font-size: 16px; font-style: normal; font-variant-ligatures: normal; font-variant-caps: normal; font-weight: 400; letter-spacing: normal; orphans: 2; text-align: start; text-indent: 0px; text-transform: none; widows: 2; word-spacing: 0px; -webkit-text-stroke-width: 0px; white-space: normal; background-color: rgb(255, 255, 255); text-decoration-thickness: initial; text-decoration-style: initial; text-decoration-color: initial; line-height: 1.8;&quot;&gt;&lt;span style=&quot;box-sizing: border-box; margin: 0px; padding: 0px; background-color: transparent; color: rgb(0, 0, 0); font-family: Arial, sans-serif; font-size: 12pt;&quot;&gt;&lt;span style=&quot;box-sizing: border-box; margin: 0px; padding: 0px; font-style: normal; font-variant: normal; text-decoration: none; vertical-align: baseline; white-space: pre-wrap;&quot;&gt;&lt;strong style=&quot;box-sizing: border-box; margin: 0px; padding: 0px; font-weight: bolder;&quot;&gt;Các trạng thái của sản phẩm:&lt;/strong&gt;&lt;/span&gt;&lt;/span&gt;&lt;/p&gt;&lt;ul style=&quot;box-sizing: border-box; margin: 0px; padding: 0px 0px 0px 2rem; list-style: circle; color: rgb(33, 37, 41); font-family: SFProDisplay; font-size: 16px; font-style: normal; font-variant-ligatures: normal; font-variant-caps: normal; font-weight: 400; letter-spacing: normal; orphans: 2; text-align: start; text-indent: 0px; text-transform: none; widows: 2; word-spacing: 0px; -webkit-text-stroke-width: 0px; white-space: normal; background-color: rgb(255, 255, 255); text-decoration-thickness: initial; text-decoration-style: initial; text-decoration-color: initial; padding-inline-start: 48px;&quot;&gt;&lt;li dir=&quot;ltr&quot; aria-level=&quot;1&quot; style=&quot;box-sizing: border-box; margin: 0px; padding: 0px; background-color: transparent; color: rgb(0, 0, 0); font-family: Arial, sans-serif; font-size: 12pt; font-style: normal; font-variant: normal; font-weight: 400; list-style-type: disc; text-decoration: none; vertical-align: baseline; white-space: pre;&quot;&gt;&lt;span style=&quot;box-sizing: border-box; margin: 0px; padding: 0px; background-color: transparent; color: rgb(0, 0, 0); font-family: Arial, sans-serif; font-size: 12pt;&quot;&gt;&lt;span style=&quot;box-sizing: border-box; margin: 0px; padding: 0px; font-style: normal; font-variant: normal; text-decoration: none; vertical-align: baseline; white-space: pre-wrap;&quot;&gt;&lt;strong style=&quot;box-sizing: border-box; margin: 0px; padding: 0px; font-weight: bolder;&quot;&gt;Chờ nhập kho:&lt;/strong&gt;&lt;/span&gt;&lt;span style=&quot;box-sizing: border-box; margin: 0px; padding: 0px; font-style: normal; font-variant: normal; font-weight: 400; text-decoration: none; vertical-align: baseline; white-space: pre-wrap;&quot;&gt; Sản phẩm đã được đặt hàng nhưng chưa được nhập kho.&lt;/span&gt;&lt;/span&gt;&lt;/li&gt;&lt;li dir=&quot;ltr&quot; aria-level=&quot;1&quot; style=&quot;box-sizing: border-box; margin: 0px; padding: 0px; background-color: transparent; color: rgb(0, 0, 0); font-family: Arial, sans-serif; font-size: 12pt; font-style: normal; font-variant: normal; font-weight: 400; list-style-type: disc; text-decoration: none; vertical-align: baseline; white-space: pre;&quot;&gt;&lt;span style=&quot;box-sizing: border-box; margin: 0px; padding: 0px; background-color: transparent; color: rgb(0, 0, 0); font-family: Arial, sans-serif; font-size: 12pt;&quot;&gt;&lt;span style=&quot;box-sizing: border-box; margin: 0px; padding: 0px; font-style: normal; font-variant: normal; text-decoration: none; vertical-align: baseline; white-space: pre-wrap;&quot;&gt;&lt;strong style=&quot;box-sizing: border-box; margin: 0px; padding: 0px; font-weight: bolder;&quot;&gt;Còn hàng:&lt;/strong&gt;&lt;/span&gt;&lt;span style=&quot;box-sizing: border-box; margin: 0px; padding: 0px; font-style: normal; font-variant: normal; font-weight: 400; text-decoration: none; vertical-align: baseline; white-space: pre-wrap;&quot;&gt; Sản phẩm đã có sẵn trong kho và có thể bán được.&lt;/span&gt;&lt;/span&gt;&lt;/li&gt;&lt;li dir=&quot;ltr&quot; aria-level=&quot;1&quot; style=&quot;box-sizing: border-box; margin: 0px; padding: 0px; background-color: transparent; color: rgb(0, 0, 0); font-family: Arial, sans-serif; font-size: 12pt; font-style: normal; font-variant: normal; font-weight: 400; list-style-type: disc; text-decoration: none; vertical-align: baseline; white-space: pre;&quot;&gt;&lt;span style=&quot;box-sizing: border-box; margin: 0px; padding: 0px; background-color: transparent; color: rgb(0, 0, 0); font-family: Arial, sans-serif; font-size: 12pt;&quot;&gt;&lt;span style=&quot;box-sizing: border-box; margin: 0px; padding: 0px; font-style: normal; font-variant: normal; text-decoration: none; vertical-align: baseline; white-space: pre-wrap;&quot;&gt;&lt;strong style=&quot;box-sizing: border-box; margin: 0px; padding: 0px; font-weight: bolder;&quot;&gt;Hết hàng:&lt;/strong&gt;&lt;/span&gt;&lt;span style=&quot;box-sizing: border-box; margin: 0px; padding: 0px; font-style: normal; font-variant: normal; font-weight: 400; text-decoration: none; vertical-align: baseline; white-space: pre-wrap;&quot;&gt; Sản phẩm đã bán hết và không còn trong kho.&lt;/span&gt;&lt;/span&gt;&lt;/li&gt;&lt;li dir=&quot;ltr&quot; aria-level=&quot;1&quot; style=&quot;box-sizing: border-box; margin: 0px; padding: 0px; background-color: transparent; color: rgb(0, 0, 0); font-family: Arial, sans-serif; font-size: 12pt; font-style: normal; font-variant: normal; font-weight: 400; list-style-type: disc; text-decoration: none; vertical-align: baseline; white-space: pre;&quot;&gt;&lt;span style=&quot;box-sizing: border-box; margin: 0px; padding: 0px; background-color: transparent; color: rgb(0, 0, 0); font-family: Arial, sans-serif; font-size: 12pt;&quot;&gt;&lt;span style=&quot;box-sizing: border-box; margin: 0px; padding: 0px; font-style: normal; font-variant: normal; text-decoration: none; vertical-align: baseline; white-space: pre-wrap;&quot;&gt;&lt;strong style=&quot;box-sizing: border-box; margin: 0px; padding: 0px; font-weight: bolder;&quot;&gt;Ngừng kinh doanh:&lt;/strong&gt;&lt;/span&gt;&lt;span style=&quot;box-sizing: border-box; margin: 0px; padding: 0px; font-style: normal; font-variant: normal; font-weight: 400; text-decoration: none; vertical-align: baseline; white-space: pre-wrap;&quot;&gt; Sản phẩm không còn được bán nữa, có thể do ngừng sản xuất hoặc ngừng bán.&lt;/span&gt;&lt;/span&gt;&lt;/li&gt;&lt;/ul&gt;&lt;p dir=&quot;ltr&quot; style=&quot;box-sizing: border-box; margin: 6pt 0px; padding: 0px; color: rgb(0, 0, 0); font-family: SFProDisplay; font-size: 16px; font-style: normal; font-variant-ligatures: normal; font-variant-caps: normal; font-weight: 400; letter-spacing: normal; orphans: 2; text-align: start; text-indent: 0px; text-transform: none; widows: 2; word-spacing: 0px; -webkit-text-stroke-width: 0px; white-space: normal; background-color: rgb(255, 255, 255); text-decoration-thickness: initial; text-decoration-style: initial; text-decoration-color: initial; line-height: 1.8;&quot;&gt;&lt;span style=&quot;box-sizing: border-box; margin: 0px; padding: 0px; background-color: transparent; color: rgb(0, 0, 0); font-family: Arial, sans-serif; font-size: 12pt;&quot;&gt;&lt;span style=&quot;box-sizing: border-box; margin: 0px; padding: 0px; font-style: normal; font-variant: normal; text-decoration: none; vertical-align: baseline; white-space: pre-wrap;&quot;&gt;&lt;strong style=&quot;box-sizing: border-box; margin: 0px; padding: 0px; font-weight: bolder;&quot;&gt;Yêu cầu:&lt;/strong&gt;&lt;/span&gt;&lt;/span&gt;&lt;/p&gt;&lt;ol style=&quot;box-sizing: border-box; margin: 0px; padding: 0px 0px 0px 2rem; color: rgb(33, 37, 41); font-family: SFProDisplay; font-size: 16px; font-style: normal; font-variant-ligatures: normal; font-variant-caps: normal; font-weight: 400; letter-spacing: normal; orphans: 2; text-align: start; text-indent: 0px; text-transform: none; widows: 2; word-spacing: 0px; -webkit-text-stroke-width: 0px; white-space: normal; background-color: rgb(255, 255, 255); text-decoration-thickness: initial; text-decoration-style: initial; text-decoration-color: initial; padding-inline-start: 48px;&quot;&gt;&lt;li dir=&quot;ltr&quot; aria-level=&quot;1&quot; style=&quot;box-sizing: border-box; margin: 0px; padding: 0px; background-color: transparent; color: rgb(0, 0, 0); font-family: Arial, sans-serif; font-size: 12pt; font-style: normal; font-variant: normal; font-weight: 400; list-style-type: decimal; text-decoration: none; vertical-align: baseline; white-space: pre;&quot;&gt;&lt;span style=&quot;box-sizing: border-box; margin: 0px; padding: 0px; background-color: transparent; color: rgb(0, 0, 0); font-family: Arial, sans-serif; font-size: 12pt;&quot;&gt;&lt;span style=&quot;box-sizing: border-box; margin: 0px; padding: 0px; font-style: normal; font-variant: normal; text-decoration: none; vertical-align: baseline; white-space: pre-wrap;&quot;&gt;&lt;strong style=&quot;box-sizing: border-box; margin: 0px; padding: 0px; font-weight: bolder;&quot;&gt;Vẽ State Diagram&lt;/strong&gt;&lt;/span&gt;&lt;span style=&quot;box-sizing: border-box; margin: 0px; padding: 0px; font-style: normal; font-variant: normal; font-weight: 400; text-decoration: none; vertical-align: baseline; white-space: pre-wrap;&quot;&gt; cho hành vi của sản phẩm trong quá trình sống còn của nó, bao gồm các trạng thái trên.&lt;/span&gt;&lt;/span&gt;&lt;/li&gt;&lt;li dir=&quot;ltr&quot; aria-level=&quot;1&quot; style=&quot;box-sizing: border-box; margin: 0px; padding: 0px; background-color: transparent; color: rgb(0, 0, 0); font-family: Arial, sans-serif; font-size: 12pt; font-style: normal; font-variant: normal; font-weight: 400; list-style-type: decimal; text-decoration: none; vertical-align: baseline; white-space: pre;&quot;&gt;&lt;span style=&quot;box-sizing: border-box; margin: 0px; padding: 0px; background-color: transparent; color: rgb(0, 0, 0); font-family: Arial, sans-serif; font-size: 12pt;&quot;&gt;&lt;span style=&quot;box-sizing: border-box; margin: 0px; padding: 0px; font-style: normal; font-variant: normal; text-decoration: none; vertical-align: baseline; white-space: pre-wrap;&quot;&gt;&lt;strong style=&quot;box-sizing: border-box; margin: 0px; padding: 0px; font-weight: bolder;&quot;&gt;Giải thích logic chuyển trạng thái:&lt;/strong&gt;&lt;/span&gt;&lt;span style=&quot;box-sizing: border-box; margin: 0px; padding: 0px; font-style: normal; font-variant: normal; font-weight: 400; text-decoration: none; vertical-align: baseline; white-space: pre-wrap;&quot;&gt; Mô tả các điều kiện và sự kiện (trigger) dẫn đến việc sản phẩm thay đổi trạng thái (ví dụ: sản phẩm từ &quot;Chờ nhập kho&quot; chuyển sang &quot;Còn hàng&quot; khi được nhập kho).&lt;/span&gt;&lt;/span&gt;&lt;/li&gt;&lt;/ol&gt;" style="text;whiteSpace=wrap;html=1;" vertex="1" parent="1">
          <mxGeometry x="10" y="60" width="560" height="380" as="geometry" />
        </mxCell>
        <mxCell id="74TELOO3NrFOeW4OJnCb-18" style="edgeStyle=orthogonalEdgeStyle;rounded=0;orthogonalLoop=1;jettySize=auto;html=1;entryX=1;entryY=0.5;entryDx=0;entryDy=0;" edge="1" parent="1" source="74TELOO3NrFOeW4OJnCb-6" target="74TELOO3NrFOeW4OJnCb-17">
          <mxGeometry relative="1" as="geometry" />
        </mxCell>
        <mxCell id="74TELOO3NrFOeW4OJnCb-6" value="" style="ellipse;html=1;shape=endState;fillColor=#000000;strokeColor=light-dark(#000000,#130000);strokeWidth=10;" vertex="1" parent="1">
          <mxGeometry x="80" y="490" width="30" height="30" as="geometry" />
        </mxCell>
        <mxCell id="74TELOO3NrFOeW4OJnCb-20" style="edgeStyle=orthogonalEdgeStyle;rounded=0;orthogonalLoop=1;jettySize=auto;html=1;entryX=0.5;entryY=1;entryDx=0;entryDy=0;" edge="1" parent="1" source="74TELOO3NrFOeW4OJnCb-17" target="74TELOO3NrFOeW4OJnCb-19">
          <mxGeometry relative="1" as="geometry" />
        </mxCell>
        <mxCell id="74TELOO3NrFOeW4OJnCb-17" value="Chờ nhâp kho" style="html=1;whiteSpace=wrap;strokeColor=default;flipV=1;direction=west;rounded=1;" vertex="1" parent="1">
          <mxGeometry x="200" y="490" width="100" height="30" as="geometry" />
        </mxCell>
        <mxCell id="74TELOO3NrFOeW4OJnCb-24" style="edgeStyle=orthogonalEdgeStyle;rounded=0;orthogonalLoop=1;jettySize=auto;html=1;entryX=1;entryY=0.5;entryDx=0;entryDy=0;" edge="1" parent="1" source="74TELOO3NrFOeW4OJnCb-19" target="74TELOO3NrFOeW4OJnCb-23">
          <mxGeometry relative="1" as="geometry" />
        </mxCell>
        <mxCell id="74TELOO3NrFOeW4OJnCb-19" value="Còn hàng" style="html=1;whiteSpace=wrap;strokeColor=default;flipV=1;direction=west;rounded=1;" vertex="1" parent="1">
          <mxGeometry x="200" y="620" width="100" height="30" as="geometry" />
        </mxCell>
        <mxCell id="74TELOO3NrFOeW4OJnCb-21" value="sau khi nhập kho" style="text;html=1;whiteSpace=wrap;strokeColor=none;fillColor=none;align=center;verticalAlign=middle;rounded=0;" vertex="1" parent="1">
          <mxGeometry x="250" y="550" width="60" height="30" as="geometry" />
        </mxCell>
        <mxCell id="74TELOO3NrFOeW4OJnCb-27" style="edgeStyle=orthogonalEdgeStyle;rounded=0;orthogonalLoop=1;jettySize=auto;html=1;entryX=1;entryY=0.5;entryDx=0;entryDy=0;" edge="1" parent="1" source="74TELOO3NrFOeW4OJnCb-23" target="74TELOO3NrFOeW4OJnCb-26">
          <mxGeometry relative="1" as="geometry" />
        </mxCell>
        <mxCell id="74TELOO3NrFOeW4OJnCb-23" value="Hết hàng" style="html=1;whiteSpace=wrap;strokeColor=default;flipV=1;direction=west;rounded=1;" vertex="1" parent="1">
          <mxGeometry x="510" y="620" width="100" height="30" as="geometry" />
        </mxCell>
        <mxCell id="74TELOO3NrFOeW4OJnCb-25" value="sau khi bán hết và không còn trong kho" style="text;html=1;whiteSpace=wrap;strokeColor=none;fillColor=none;align=center;verticalAlign=middle;rounded=0;" vertex="1" parent="1">
          <mxGeometry x="330" y="600" width="140" height="30" as="geometry" />
        </mxCell>
        <mxCell id="74TELOO3NrFOeW4OJnCb-30" style="edgeStyle=orthogonalEdgeStyle;rounded=0;orthogonalLoop=1;jettySize=auto;html=1;entryX=0;entryY=0.5;entryDx=0;entryDy=0;" edge="1" parent="1" source="74TELOO3NrFOeW4OJnCb-26" target="74TELOO3NrFOeW4OJnCb-29">
          <mxGeometry relative="1" as="geometry" />
        </mxCell>
        <mxCell id="74TELOO3NrFOeW4OJnCb-26" value="Ngừng kinh doanh" style="html=1;whiteSpace=wrap;strokeColor=default;flipV=1;direction=west;rounded=1;" vertex="1" parent="1">
          <mxGeometry x="840" y="620" width="100" height="30" as="geometry" />
        </mxCell>
        <mxCell id="74TELOO3NrFOeW4OJnCb-28" value="sản phẩm ngừng sản xuất hoặc ngừng bán" style="text;html=1;whiteSpace=wrap;strokeColor=none;fillColor=none;align=center;verticalAlign=middle;rounded=0;" vertex="1" parent="1">
          <mxGeometry x="610" y="600" width="230" height="30" as="geometry" />
        </mxCell>
        <mxCell id="74TELOO3NrFOeW4OJnCb-29" value="" style="ellipse;html=1;shape=endState;fillColor=#000000;strokeColor=#130000;" vertex="1" parent="1">
          <mxGeometry x="1030" y="610" width="50" height="50" as="geometry" />
        </mxCell>
      </root>
    </mxGraphModel>
  </diagram>
</mxfile>
